<svg width="12" height="12" viewBox="0 0 12 12" fill="none" xmlns="http://www.w3.org/2000/svg">
<path fill-rule="evenodd" clip-rule="evenodd" d="M3.35355 3.14645C3.15829 2.95118 2.84171 2.95118 2.64645 3.14645C2.45118 3.34171 2.45118 3.65829 2.64645 3.85355L4.79289 6L2.64645 8.14645C2.45118 8.34171 2.45118 8.65829 2.64645 8.85355C2.84171 9.04882 3.15829 9.04882 3.35355 8.85355L5.85355 6.35355C6.04882 6.15829 6.04882 5.84171 5.85355 5.64645L3.35355 3.14645ZM6.85352 3.14645C6.65826 2.95118 6.34168 2.95118 6.14642 3.14645C5.95115 3.34171 5.95115 3.65829 6.14642 3.85355L8.29286 6L6.14642 8.14645C5.95115 8.34171 5.95115 8.65829 6.14642 8.85355C6.34168 9.04882 6.65826 9.04882 6.85352 8.85355L9.35352 6.35355C9.54878 6.15829 9.54878 5.84171 9.35352 5.64645L6.85352 3.14645Z" fill="#2D3440"/>
</svg>
