<svg width="17" height="16" viewBox="0 0 17 16" fill="none" xmlns="http://www.w3.org/2000/svg">
<path fill-rule="evenodd" clip-rule="evenodd" d="M0.645874 1.15641C0.645874 0.788223 0.944351 0.489746 1.31254 0.489746H3.91999C4.23774 0.489746 4.51133 0.714003 4.57369 1.02557L5.11879 3.74906H15.6535C15.8522 3.74906 16.0405 3.83767 16.1672 3.99076C16.2938 4.14384 16.3456 4.34544 16.3084 4.54061L15.2654 10.0097L15.2644 10.0147L15.2644 10.0147C15.1743 10.4683 14.9276 10.8757 14.5673 11.1657C14.209 11.4542 13.761 11.6082 13.3011 11.601H6.97639C6.51652 11.6082 6.06854 11.4542 5.71016 11.1657C5.35008 10.8759 5.10338 10.4686 5.0132 10.0153L5.01308 10.0147L3.92432 4.57495C3.91985 4.5567 3.91612 4.53816 3.91319 4.51936L3.37353 1.82308H1.31254C0.944351 1.82308 0.645874 1.5246 0.645874 1.15641ZM6.5285 12.8757C5.80055 12.8757 5.21043 13.4658 5.21043 14.1938C5.21043 14.9217 5.80055 15.5118 6.5285 15.5118C7.25644 15.5118 7.84656 14.9217 7.84656 14.1938C7.84656 13.4658 7.25644 12.8757 6.5285 12.8757ZM13.6985 12.8757C12.9705 12.8757 12.3804 13.4658 12.3804 14.1938C12.3804 14.9217 12.9705 15.5118 13.6985 15.5118C14.4264 15.5118 15.0166 14.9217 15.0166 14.1938C15.0166 13.4658 14.4264 12.8757 13.6985 12.8757Z" fill="#2D3440"/>
</svg>
