<svg width="24" height="24" viewBox="0 0 24 24" fill="none" xmlns="http://www.w3.org/2000/svg">
<path fill-rule="evenodd" clip-rule="evenodd" d="M24 12C24 18.6274 18.6274 24 12 24C5.37258 24 0 18.6274 0 12C0 5.37258 5.37258 0 12 0C18.6274 0 24 5.37258 24 12ZM12.5884 14.9749H11.8711C11.8711 14.9749 10.2885 15.0584 8.89479 13.7867C7.37486 12.3995 6.03249 9.64702 6.03249 9.64702C6.03249 9.64702 5.95511 9.46654 6.03917 9.3793C6.13366 9.28121 6.39106 9.27493 6.39106 9.27493L8.10567 9.26508C8.10567 9.26508 8.26727 9.28878 8.38294 9.36317C8.47824 9.42457 8.53167 9.53936 8.53167 9.53936C8.53167 9.53936 8.80878 10.1536 9.17581 10.7093C9.89212 11.7942 10.2258 12.0315 10.469 11.9152C10.8233 11.7458 10.7171 10.3816 10.7171 10.3816C10.7171 10.3816 10.7236 9.88646 10.5387 9.66601C10.3955 9.4951 10.1254 9.44527 10.0062 9.43128C9.90971 9.42 10.0681 9.22367 10.2733 9.13558C10.5819 9.00308 11.1268 8.99551 11.7706 9.00136C12.2722 9.00579 12.4165 9.0332 12.6127 9.07475C13.0677 9.17105 13.0536 9.47963 13.0229 10.1454C13.0138 10.3444 13.0032 10.5752 13.0032 10.8418C13.0032 10.9018 13.0012 10.9657 12.9991 11.0315C12.9885 11.3725 12.9763 11.7629 13.2324 11.908C13.3637 11.9822 13.6849 11.9191 14.4884 10.7233C14.8693 10.1566 15.1549 9.49024 15.1549 9.49024C15.1549 9.49024 15.2173 9.37145 15.3142 9.32048C15.4134 9.26851 15.5472 9.2845 15.5472 9.2845L17.3515 9.27465C17.3515 9.27465 17.8937 9.21796 17.9815 9.43242C18.0735 9.65758 17.7788 10.1833 17.0417 11.0444C16.3463 11.8567 16.006 12.1587 16.0328 12.4236C16.0527 12.6198 16.2739 12.7957 16.7015 13.1436C17.5897 13.8661 17.8264 14.2455 17.8827 14.3357C17.8872 14.343 17.8906 14.3484 17.893 14.3519C18.2905 14.9296 17.4522 14.9749 17.4522 14.9749L15.8497 14.9944C15.8497 14.9944 15.5053 15.0543 15.0521 14.7814C14.8151 14.6388 14.5833 14.406 14.3626 14.1842C14.0251 13.8451 13.7131 13.5316 13.4469 13.6056C13.0002 13.7298 13.0143 14.5734 13.0143 14.5734C13.0143 14.5734 13.0175 14.7536 12.9157 14.8495C12.8051 14.954 12.5884 14.9749 12.5884 14.9749Z" fill="#FCFCFC"/>
</svg>
